<svg xmlns="http://www.w3.org/2000/svg" width="179" height="176" viewBox="0 0 179 176">
<path d="M 116 33 L 22 33 L 16 41 L 10 52 L 4 70 L 3 86 L 2 87 L 3 102 L 7 118 L 14 133 L 27 150 L 39 160 L 55 169 L 69 173 L 58 153 L 53 151 L 43 144 L 30 130 L 24 120 L 20 110 L 17 96 L 17 82 L 22 62 L 24 60 L 39 60 L 40 61 L 38 67 L 28 83 L 28 86 L 56 86 L 59 84 L 68 67 L 74 60 L 101 60 L 103 59 L 108 53 L 117 37 Z" fill="#9e9f9f" fill-rule="evenodd"/>
<path d="M 38 18 L 26 29 L 49 29 L 59 23 L 78 17 L 100 17 L 112 20 L 125 26 L 135 33 L 145 43 L 147 47 L 141 58 L 138 61 L 125 39 L 121 38 L 109 59 L 109 65 L 122 87 L 122 90 L 109 112 L 109 119 L 121 140 L 124 140 L 171 59 L 161 39 L 150 26 L 136 15 L 120 7 L 105 3 L 80 2 L 79 3 L 68 4 L 56 8 Z" fill="#dd5310" fill-rule="evenodd"/>
<path d="M 176 81 L 175 80 L 175 73 L 173 65 L 172 65 L 161 83 L 161 98 L 159 108 L 149 129 L 134 145 L 124 152 L 113 157 L 102 160 L 98 160 L 95 157 L 89 146 L 91 144 L 117 144 L 117 140 L 106 121 L 103 118 L 76 118 L 72 116 L 60 95 L 56 91 L 28 91 L 28 94 L 74 174 L 77 175 L 101 175 L 118 171 L 135 163 L 146 155 L 159 141 L 165 132 L 173 113 L 176 97 Z" fill="#656363" fill-rule="evenodd"/>
</svg>